General                          : ChattChitto RG - Movies [R2L]
==========
Complete name                    : Streets Of Blood 2009 BDRip 720p H264 [ChattChitto RG]
Format                           : MPEG-4
Format profile                   : Base Media
Codec ID                         : isom
File size                        : 1.76 GiB
Duration                         : 1h 35mn
Overall bit rate                 : 2 654 Kbps
Encoded date                     : UTC 2010-03-19 10:11:35

Video
==========
ID                               : 1
Format                           : AVC
Format/Info                      : Advanced Video Codec
Format profile                   : High@L3.1
Format settings, CABAC           : Yes
Format settings, ReFrames        : 3 frames
Codec ID                         : avc1
Codec ID/Info                    : Advanced Video Coding
Duration                         : 1h 35mn
Bit rate mode                    : Variable
Bit rate                         : 2 300 Kbps
Maximum bit rate                 : 17.4 Mbps
Width                            : 1 280 pixels
Height                           : 720 pixels
Display aspect ratio             : 16:9
Frame rate mode                  : Constant
Frame rate                       : 23.976 fps
Resolution                       : 8 bits
Colorimetry                      : 4:2:0
Scan type                        : Progressive
Bits/(Pixel*Frame)               : 0.104
Stream size                      : 1.53 GiB (87%)
Writing library                  : x264 core 76 r1271 496d79d
Encoded date                     : UTC 2010-03-19 09:17:16

Audio
==========
ID                               : 2
Format                           : AAC
Format/Info                      : Advanced Audio Codec
Format version                   : Version 4
Format profile                   : LC
Format settings, SBR             : No
Codec ID                         : 40
Duration                         : 1h 35mn
Bit rate mode                    : Variable
Bit rate                         : 352.8 Kbps
Maximum bit rate                 : 422 Kbps
Channel(s)                       : 6 channels
Channel positions                : Front: L C R, Side: L R, LFE
Sampling rate                    : 48.0 KHz
Stream size                      : 238 MiB (13%)
Encoded date                     : UTC 2010-03-19 10:12:22

Subtitles                        : English


----------------------------------------------------
IMDB Link: http://www.imdb.com/title/tt1203523/
----------------------------------------------------



Screen Shots:
==============    
http://chattchitto.net/chattchittorg/movies/bdrip/2010/streets_of_blood/1.png 
http://chattchitto.net/chattchittorg/movies/bdrip/2010/streets_of_blood/2.png 
http://chattchitto.net/chattchittorg/movies/bdrip/2010/streets_of_blood/3.png 
http://chattchitto.net/chattchittorg/movies/bdrip/2010/streets_of_blood/4.png 
http://chattchitto.net/chattchittorg/movies/bdrip/2010/streets_of_blood/5.png 
http://chattchitto.net/chattchittorg/movies/bdrip/2010/streets_of_blood/6.png 
http://chattchitto.net/chattchittorg/movies/bdrip/2010/streets_of_blood/7.png



ScreenShots Comparison:
========================= 
-



Plot:
======
Val Kilmer and Curtis "50 Cent" Jackson star in this film about policemen who realize that crime reigns both inside and outside the walls of their police station. The death of a cop’s partner during Hurricane Katrina begins to look suspicious, and he and his new partner begin to investigate what appears to be a murder.



Release Info:
==============
original name .... : Streets Of Blood 2009 BDRip 720p H264 [ChattChitto RG]
ripper.............: Recalled2Life (R2L)
encoder............: Recalled2Life (R2L)
video codec........: H264/.MP4
video bitrate......: 2300 Kbps
audio codec........: AAC-LC
aspect ratio.......: 16:9 | 1:78.1
resolution.........: 1280 x 720
genre..............: Crime | Drama | Thriller
runtime............: 1h 36mn
language...........: English
rating.............: R
subtitles..........: English
sample.............: Yes [13.50 Mb]
2ch Audio..........: 2ch Audio for XBox Viewers
Compatibility .....: XBox 360 | PS3 | WD Live



Source:
========
Streets Of Blood Blu-Ray 1080p VC-1/LPCM 5.1 - R2L [17.3 GB] Thanks!



Notes:
=======
ChattChitto RG Encourages Burning this Film with ConvertXtoDVD and Playing with VLC media player.
XBox 360 | PS3 | WD Live - Compatible 
Enhanced for your viewing pleasure ;)